# xmcd
#
# Track frame offsets:
#	150
#	15867
#	32380
#	52182
#	70840
#	92082
#	111790
#	131427
#	151660
#	169715
#	185785
#	201492
#	220557
#
# Disc length: 3228 seconds
#
# Revision: 14
# Processed by: cddbd v1.5.2PL0 Copyright (c) Steve Scherf et al.
# Submitted via: EasyCDDAExtractor 15.3.0.1
#
DISCID=a70c9a0d
DTITLE=Enrique Iglesias - Enrique
DYEAR=1999
DGENRE=Pop
TTITLE0=Rhythm Divine
TTITLE1=Be With You
TTITLE2=I Have Always Loved You
TTITLE3=Sad Eyes
TTITLE4=I'm Your Man
TTITLE5=Oyeme
TTITLE6=Could I Have This Kiss Forever (Whitney Houston And Enrique Iglesias)
TTITLE7=You're My # 1
TTITLE8=Alabao
TTITLE9=Bailamos
TTITLE10=Ritmo Total (Rhythm Divine)
TTITLE11=Mas Es Amar (Sad Eyes)
TTITLE12=No Puedo Mas Sin Ti (I'm Your Man)
EXTD=YEAR: 1999
EXTT0=
EXTT1=
EXTT2=
EXTT3=
EXTT4=
EXTT5=
EXTT6=
EXTT7=
EXTT8=
EXTT9=
EXTT10=
EXTT11=
EXTT12=
PLAYORDER=
